<svg width="16" height="16" viewBox="0 0 16 16" fill="none" xmlns="http://www.w3.org/2000/svg">
<path d="M7.52659 10.4733C7.58999 10.534 7.66475 10.5816 7.74659 10.6133C7.90889 10.68 8.09094 10.68 8.25325 10.6133C8.33509 10.5816 8.40985 10.534 8.47325 10.4733L10.4733 8.47332C10.5988 8.34778 10.6693 8.17752 10.6693 7.99998C10.6693 7.82245 10.5988 7.65219 10.4733 7.52665C10.3477 7.40111 10.1775 7.33059 9.99992 7.33059C9.82238 7.33059 9.65212 7.40111 9.52659 7.52665L8.66659 8.39332V5.99998C8.66659 5.82317 8.59635 5.6536 8.47132 5.52858C8.3463 5.40355 8.17673 5.33332 7.99992 5.33332C7.82311 5.33332 7.65354 5.40355 7.52851 5.52858C7.40349 5.6536 7.33325 5.82317 7.33325 5.99998V8.39332L6.47325 7.52665C6.41128 7.46416 6.33754 7.41457 6.2563 7.38072C6.17506 7.34688 6.08793 7.32945 5.99992 7.32945C5.91191 7.32945 5.82477 7.34688 5.74353 7.38072C5.66229 7.41457 5.58856 7.46416 5.52659 7.52665C5.4641 7.58862 5.4145 7.66236 5.38066 7.7436C5.34681 7.82484 5.32939 7.91197 5.32939 7.99998C5.32939 8.08799 5.34681 8.17513 5.38066 8.25637C5.4145 8.33761 5.4641 8.41134 5.52659 8.47332L7.52659 10.4733ZM7.99992 14.6666C9.31846 14.6666 10.6074 14.2757 11.7037 13.5431C12.8 12.8106 13.6545 11.7694 14.1591 10.5512C14.6637 9.33303 14.7957 7.99259 14.5385 6.69938C14.2813 5.40617 13.6463 4.21829 12.714 3.28594C11.7816 2.35359 10.5937 1.71865 9.30052 1.46141C8.00731 1.20418 6.66687 1.3362 5.4487 1.84079C4.23052 2.34537 3.18933 3.19985 2.45679 4.29618C1.72425 5.39251 1.33325 6.68144 1.33325 7.99998C1.33325 9.76809 2.03563 11.4638 3.28587 12.714C3.90493 13.3331 4.63986 13.8241 5.4487 14.1592C6.25753 14.4942 7.12444 14.6666 7.99992 14.6666ZM7.99992 2.66665C9.05475 2.66665 10.0859 2.97944 10.963 3.56548C11.84 4.15151 12.5236 4.98447 12.9273 5.959C13.3309 6.93354 13.4366 8.0059 13.2308 9.04046C13.025 10.075 12.517 11.0253 11.7712 11.7712C11.0253 12.5171 10.075 13.0251 9.0404 13.2308C8.00584 13.4366 6.93348 13.331 5.95894 12.9273C4.9844 12.5237 4.15145 11.8401 3.56541 10.963C2.97938 10.086 2.66659 9.05482 2.66659 7.99998C2.66659 6.58549 3.22849 5.22894 4.22868 4.22875C5.22888 3.22855 6.58543 2.66665 7.99992 2.66665Z" fill="#121826"/>
</svg>
