<svg width="16" height="16" viewBox="0 0 16 16" fill="none" xmlns="http://www.w3.org/2000/svg">
<path d="M12.6667 7.33335H8.66675V3.33335C8.66675 3.15654 8.59651 2.98697 8.47149 2.86195C8.34646 2.73693 8.17689 2.66669 8.00008 2.66669C7.82327 2.66669 7.6537 2.73693 7.52868 2.86195C7.40365 2.98697 7.33341 3.15654 7.33341 3.33335V7.33335H3.33341C3.1566 7.33335 2.98703 7.40359 2.86201 7.52862C2.73699 7.65364 2.66675 7.82321 2.66675 8.00002C2.66675 8.17683 2.73699 8.3464 2.86201 8.47142C2.98703 8.59645 3.1566 8.66669 3.33341 8.66669H7.33341V12.6667C7.33341 12.8435 7.40365 13.0131 7.52868 13.1381C7.6537 13.2631 7.82327 13.3334 8.00008 13.3334C8.17689 13.3334 8.34646 13.2631 8.47149 13.1381C8.59651 13.0131 8.66675 12.8435 8.66675 12.6667V8.66669H12.6667C12.8436 8.66669 13.0131 8.59645 13.1382 8.47142C13.2632 8.3464 13.3334 8.17683 13.3334 8.00002C13.3334 7.82321 13.2632 7.65364 13.1382 7.52862C13.0131 7.40359 12.8436 7.33335 12.6667 7.33335Z" fill="#121826"/>
</svg>
